<svg fill="none" height="48px" viewBox="0 0 50 50" width="50" xmlns="http://www.w3.org/2000/svg"><path d="M41.247 31.123c-.157 3.155-.404 6.253-.644 9.283-.27 3.41-2.886 6.215-6.294 6.504a106.29 106.29 0 0 1-18.454 0c-3.41-.289-6.024-3.093-6.295-6.504-.394-4.972-.808-10.13-.808-15.417 0-5.287.414-10.444.808-15.416.27-3.41 2.886-6.215 6.295-6.504 2.433-.206 4.794-.333 7.139-.38M26.868 40.918h-3.572" stroke="#E33390" stroke-linecap="round" stroke-linejoin="round" stroke-width="2"></path><path d="M30.927 8.038c1.752-1.751 2.023-3.358 3.295-4.977a2.452 2.452 0 0 1 3.877 0c1.272 1.62 1.544 3.226 3.295 4.977 1.751 1.752 3.358 2.023 4.977 3.295a2.452 2.452 0 0 1 0 3.877c-1.62 1.273-3.226 1.544-4.977 3.295-1.751 1.751-2.022 3.358-3.295 4.977a2.452 2.452 0 0 1-3.877 0c-1.272-1.62-1.543-3.226-3.295-4.977-1.751-1.751-3.358-2.022-4.976-3.295a2.452 2.452 0 0 1 0-3.877c1.618-1.272 3.225-1.543 4.976-3.295Z" stroke="#E33390" stroke-linecap="round" stroke-linejoin="round" stroke-width="2"></path></svg>