<svg fill="none" height="48px" viewBox="0 0 50 50" width="50" xmlns="http://www.w3.org/2000/svg"><path d="M42.136 13.495c.316 3.743.582 7.586.582 11.505 0 3.918-.266 11.761-.582 15.505-.427 5.071-3.64 5.93-7.634 6.495-5.286.748-12.948.748-18.234 0-3.994-.565-7.207-1.424-7.635-6.495-.315-3.744-.582-11.587-.582-15.505 0-3.919.267-7.762.582-11.505" stroke="#E33390" stroke-linecap="round" stroke-linejoin="round" stroke-width="2"></path><path d="m5.185 14.037-.844-.536a1 1 0 0 0 1.26 1.445l-.416-.909Zm40 0-.417.909a1 1 0 0 0 1.261-1.445l-.844.536Zm-39.583.909c1.329-.61 2.33-.872 3.283-.872.952 0 1.954.263 3.283.872l.834-1.818c-1.471-.675-2.77-1.054-4.117-1.054-1.348 0-2.646.38-4.117 1.054l.834 1.818Zm6.566 0c3.065 1.405 6.17 1.405 9.234 0l-.834-1.818c-2.535 1.163-5.03 1.163-7.566 0l-.834 1.818Zm9.234 0c2.535-1.163 5.03-1.163 7.566 0l.834-1.818c-3.065-1.405-6.17-1.405-9.234 0l.834 1.818Zm7.566 0c3.065 1.405 6.17 1.405 9.234 0l-.834-1.818c-2.535 1.163-5.03 1.163-7.566 0l-.834 1.818Zm9.234 0c1.329-.61 2.33-.872 3.283-.872.952 0 1.954.263 3.283.872l.834-1.818c-1.471-.675-2.77-1.054-4.117-1.054-1.348 0-2.646.38-4.117 1.054l.834 1.818Zm7.827-1.445-3.666-5.778-1.689 1.072 3.667 5.778 1.688-1.072ZM41.52 7.26H8.851v2h32.666v-2Zm-33.512.464-3.666 5.778 1.688 1.072 3.667-5.778-1.689-1.072Zm34.511.536V5h-2v3.26h2Zm-4-7.259H11.852v2h26.666V1ZM7.852 5v3.26h2V5h-2Zm4-4a4 4 0 0 0-4 4h2a2 2 0 0 1 2-2V1Zm30.666 4a4 4 0 0 0-4-4v2a2 2 0 0 1 2 2h2Z" fill="#E33390"></path><path d="M42.185 36.745c-1.829.154-3.663.24-5.497.255-1.868 0-3.704-.117-5.492-.252-2.423-.185-4.37-1.574-4.64-3.305-.2-1.281-.37-2.599-.37-3.943 0-1.341.17-2.659.37-3.946.27-1.728 2.217-3.117 4.64-3.302 1.788-.135 3.624-.252 5.495-.252 1.833.014 3.666.098 5.494.252" stroke="#E33390" stroke-linecap="round" stroke-linejoin="round" stroke-width="2"></path></svg>