<svg fill="none" height="48px" viewBox="0 0 50 50" width="50" xmlns="http://www.w3.org/2000/svg"><g clip-path="url(#a)"><path d="M2.712 38.146C3.158 40.33 5.044 42 7.284 42H43.77c2.24 0 4.124-1.671 4.587-3.851.574-2.702 1.17-5.231 1.17-13.149 0-7.918-.596-10.447-1.17-13.149C47.895 9.671 46.011 8 43.771 8H7.284c-2.24 0-4.125 1.67-4.572 3.854C2.134 14.686 1.527 17.32 1.527 25c0 7.68.607 10.314 1.185 13.146Z" stroke="#E33390" stroke-linecap="round" stroke-linejoin="round" stroke-width="2"></path><path d="M42 26c0 1.616-.2 2.904-.672 3.76-.226.409-.505.704-.85.903-.346.2-.818.337-1.478.337s-1.132-.137-1.478-.337c-.345-.2-.624-.494-.85-.903C36.2 28.904 36 27.616 36 26c0-1.616.2-2.904.672-3.76.226-.409.505-.704.85-.903.346-.2.818-.337 1.478-.337s1.132.137 1.478.337c.345.2.624.494.85.903.472.856.672 2.144.672 3.76ZM33 26c0 1.616-.2 2.904-.672 3.76-.226.409-.505.704-.85.903-.346.2-.818.337-1.478.337s-1.132-.137-1.479-.337c-.344-.2-.623-.494-.849-.903C27.2 28.904 27 27.616 27 26c0-1.616.2-2.904.672-3.76.226-.409.505-.704.85-.903.346-.2.818-.337 1.478-.337s1.132.137 1.479.337c.344.2.623.494.849.903.472.856.672 2.144.672 3.76Z" stroke="#E33390" stroke-width="2"></path><path d="M21.5 21.5h1v-1.618l-1.447.724.447.894Zm-1 0V31h2v-9.5h-2Zm1 10.5h3v-2h-3v2Zm0-2h-3v2h3v-2Zm-.447-9.394-3 1.5.894 1.788 3-1.5-.894-1.788Z" fill="#E33390"></path><path d="M16 31.165h-5m-3 0h3m0 0v-5.5m4.5-4c-2.8-1.6-4.5 0-4.5 1.5v2.5m0 0h3m-3 0H8.5" stroke="#E33390" stroke-linejoin="bevel" stroke-width="2"></path></g><defs><clipPath id="a"><path d="M.385 0h50v50h-50z" fill="#fff"></path></clipPath></defs></svg>