<svg fill="none" height="48px" viewBox="0 0 50 50" width="50" xmlns="http://www.w3.org/2000/svg"><path d="M33.867 7.582c1.464-1.464 1.693-2.81 2.76-4.168a2.054 2.054 0 0 1 3.25 0c1.065 1.357 1.29 2.704 2.758 4.168 1.464 1.468 2.814 1.696 4.171 2.76a2.053 2.053 0 0 1 0 3.25c-1.357 1.065-2.704 1.294-4.171 2.761-1.465 1.465-1.693 2.811-2.761 4.168a2.053 2.053 0 0 1-3.25 0c-1.06-1.357-1.29-2.703-2.757-4.168-1.465-1.467-2.811-1.696-4.168-2.76a2.054 2.054 0 0 1 0-3.25c1.357-1.065 2.7-1.293 4.168-2.761ZM3.767 34.25a4.304 4.304 0 0 1 3.782-3.793 40.462 40.462 0 0 1 4.514-.307c1.536 0 3.047.143 4.514.307a4.304 4.304 0 0 1 3.786 3.79c.154 1.464.286 2.964.286 4.489 0 1.528-.132 3.028-.286 4.489a4.308 4.308 0 0 1-3.785 3.793c-1.465.164-2.976.303-4.515.303-1.536 0-3.046-.142-4.514-.303a4.308 4.308 0 0 1-3.786-3.793c-.153-1.46-.285-2.96-.285-4.49 0-1.528.132-3.028.285-4.489l.004.004ZM3.767 8.243A4.308 4.308 0 0 1 7.549 4.45c1.468-.164 2.975-.304 4.514-.304 1.536 0 3.047.143 4.514.304a4.311 4.311 0 0 1 3.786 3.793c.154 1.46.286 2.96.286 4.489s-.132 3.029-.286 4.49a4.311 4.311 0 0 1-3.785 3.792c-1.465.16-2.976.304-4.515.304-1.536 0-3.046-.143-4.514-.304a4.311 4.311 0 0 1-3.786-3.793 42.105 42.105 0 0 1-.285-4.489c0-1.529.132-3.029.285-4.49h.004ZM30.386 34.25c.207-1.982 1.8-3.572 3.778-3.793 1.468-.164 2.98-.307 4.515-.307 1.535 0 3.046.143 4.518.307 1.975.218 3.571 1.81 3.778 3.79.157 1.464.29 2.964.29 4.489 0 1.528-.133 3.028-.286 4.489a4.308 4.308 0 0 1-3.786 3.793 40.727 40.727 0 0 1-4.514.303c-1.536 0-3.047-.142-4.515-.303-1.978-.222-3.57-1.811-3.782-3.793-.157-1.46-.285-2.96-.285-4.49 0-1.528.128-3.028.285-4.489l.004.004Z" stroke="#E33390" stroke-linecap="round" stroke-linejoin="round" stroke-width="2"></path></svg>